<svg xmlns="http://www.w3.org/2000/svg" xmlns:xlink="http://www.w3.org/1999/xlink" viewBox="0,0,256,256" width="100px" height="100px" fill-rule="nonzero"><g fill="#5c7cfa" fill-rule="nonzero" stroke="none" stroke-width="1" stroke-linecap="butt" stroke-linejoin="miter" stroke-miterlimit="10" stroke-dasharray="" stroke-dashoffset="0" font-family="none" font-weight="none" font-size="none" text-anchor="none" style="mix-blend-mode: normal"><g transform="scale(5.12,5.12)"><path d="M22.20508,2c-0.49,0 -0.90733,0.35584 -0.98633,0.83984l-0.95508,5.85352c-1.2,0.345 -2.3525,0.81811 -3.4375,1.41211l-4.83008,-3.45117c-0.399,-0.285 -0.94206,-0.23758 -1.28906,0.10742l-3.88672,3.88672c-0.343,0.343 -0.39228,0.8823 -0.11328,1.2793l3.40039,4.86328c-0.605,1.095 -1.0865,2.25494 -1.4375,3.46094l-5.83203,0.9707c-0.482,0.08 -0.83594,0.49638 -0.83594,0.98438v5.5c0,0.485 0.34722,0.90133 0.82422,0.98633l5.83203,1.0332c0.349,1.203 0.8305,2.36294 1.4375,3.46094l-3.44141,4.8125c-0.284,0.397 -0.23758,0.94206 0.10742,1.28906l3.88672,3.89063c0.343,0.343 0.88425,0.39228 1.28125,0.11328l4.87109,-3.41211c1.093,0.601 2.24636,1.07783 3.44336,1.42383l0.97656,5.86133c0.079,0.481 0.49537,0.83398 0.98438,0.83398h5.5c0.485,0 0.90038,-0.34722 0.98438,-0.82422l0.31836,-1.78906c-3.587,-2.075 -6.00781,-5.94472 -6.00781,-10.38672c0,-1.103 0.16045,-2.16664 0.43945,-3.18164c-3.114,-0.71 -5.43945,-3.48936 -5.43945,-6.81836c0,-3.866 3.134,-7 7,-7c3.329,0 6.10836,2.32545 6.81836,5.43945c1.015,-0.279 2.07864,-0.43945 3.18164,-0.43945c4.442,0 8.31077,2.41886 10.38477,6.00586l1.78711,-0.3125c0.479,-0.084 0.82617,-0.50133 0.82617,-0.98633v-5.5c0.001,-0.49 -0.35389,-0.90733 -0.83789,-0.98633l-5.91016,-0.96484c-0.346,-1.186 -0.81816,-2.32725 -1.41016,-3.40625l3.44922,-4.91602c0.279,-0.397 0.23167,-0.9392 -0.11133,-1.2832l-3.89062,-3.88672c-0.347,-0.346 -0.89301,-0.39052 -1.29102,-0.10352l-4.8418,3.48047c-1.089,-0.602 -2.23864,-1.07878 -3.43164,-1.42578l-1.03125,-5.88672c-0.084,-0.478 -0.50033,-0.82812 -0.98633,-0.82812zM35,25c-5.511,0 -10,4.489 -10,10c0,5.511 4.489,10 10,10c2.39651,0 4.59739,-0.85101 6.32227,-2.26367l5.9707,5.9707l1.41406,-1.41406l-5.9707,-5.9707c1.41266,-1.72488 2.26367,-3.92576 2.26367,-6.32227c0,-5.511 -4.489,-10 -10,-10zM35,27c4.43012,0 8,3.56988 8,8c0,4.43012 -3.56988,8 -8,8c-4.43012,0 -8,-3.56988 -8,-8c0,-4.43012 3.56988,-8 8,-8z"></path></g></g></svg>