<svg xmlns="http://www.w3.org/2000/svg" xmlns:xlink="http://www.w3.org/1999/xlink" viewBox="0,0,256,256" width="100px" height="100px" fill-rule="nonzero"><g fill="#5c7cfa" fill-rule="nonzero" stroke="none" stroke-width="1" stroke-linecap="butt" stroke-linejoin="miter" stroke-miterlimit="10" stroke-dasharray="" stroke-dashoffset="0" font-family="none" font-weight="none" font-size="none" text-anchor="none" style="mix-blend-mode: normal"><g transform="scale(5.12,5.12)"><path d="M43.125,11c-1.73047,0 -3.50391,0.37891 -5.25,1.15625l-28.25,12.625c-0.08203,0.03906 -0.16016,0.0625 -0.21875,0.0625c-0.23437,0 -0.64062,-0.32422 -1,-0.59375c-1.35156,-0.99609 -3.32031,-2.42578 -3.9375,-2.90625c-0.46484,-0.35547 -1.10937,-0.5625 -1.8125,-0.5625c-1.03906,0 -1.90234,0.41406 -2.34375,1.09375c-0.35937,0.55469 -0.42187,1.23828 -0.125,1.90625l3.5625,7.90625c0.42969,0.96484 1.54297,2.125 4.40625,2.125c3.25781,0 8.3125,-1.5 14.625,-4.3125l1.3125,-0.59375l-2.28125,12.21875c-0.27344,1.09766 -0.23437,1.84375 0.15625,2.34375c0.25,0.32031 0.625,0.5 1.03125,0.5c0.20313,0 0.41406,-0.03125 0.625,-0.125l1.5625,-0.6875c1.17578,-0.52344 2.43359,-2.14453 3,-3.375l7.4375,-16.09375c14.23047,-6.66406 14.87109,-8.07422 14.25,-9.46875c-0.71484,-1.59766 -3.25391,-3.21875 -6.75,-3.21875zM13.875,12.9375c-0.5625,0 -1.37109,0.0625 -2,0.34375l-1.5625,0.6875c-0.51562,0.23047 -0.85547,0.67188 -0.875,1.1875c-0.03125,0.96484 0.94922,1.57813 1.625,1.9375l4.59375,2.8125l9.0625,-4.0625l-8.375,-2.5625c-0.75781,-0.23047 -1.61719,-0.34375 -2.46875,-0.34375z"></path></g></g></svg>