<svg xmlns="http://www.w3.org/2000/svg" xmlns:xlink="http://www.w3.org/1999/xlink" viewBox="0,0,256,256" width="100px" height="100px" fill-rule="nonzero"><g transform=""><g fill="#5c7cfa" fill-rule="nonzero" stroke="none" stroke-width="1" stroke-linecap="butt" stroke-linejoin="miter" stroke-miterlimit="10" stroke-dasharray="" stroke-dashoffset="0" font-family="none" font-weight="none" font-size="none" text-anchor="none" style="mix-blend-mode: normal"><g transform="scale(8.53333,8.53333)"><path d="M4,4c-1.105,0 -2,0.895 -2,2v4v16h26v-18v-2c0,-1.105 -0.895,-2 -2,-2zM4,10h22v14h-22zM16.0332,11.98633c-0.47554,-0.01436 -0.89537,0.30827 -1.00391,0.77148l-2,8c-0.08663,0.34684 0.01839,0.71354 0.27548,0.96194c0.2571,0.2484 0.6272,0.34074 0.97085,0.24222c0.34365,-0.09851 0.60862,-0.37291 0.69507,-0.71979l2,-8c0.07821,-0.29512 0.01733,-0.6098 -0.16531,-0.85445c-0.18263,-0.24465 -0.46702,-0.39249 -0.77219,-0.40141zM9.98047,12.98828c-0.32962,0.00908 -0.63357,0.18006 -0.8125,0.45703l-2.36914,3.55469l2.36914,3.55469c0.19554,0.3035 0.53947,0.47805 0.89988,0.4567c0.3604,-0.02135 0.68132,-0.2353 0.83965,-0.55977c0.15833,-0.32447 0.12949,-0.70908 -0.07546,-1.00631l-1.63086,-2.44531l1.63086,-2.44531c0.21326,-0.31011 0.23436,-0.7137 0.0546,-1.04436c-0.17976,-0.33066 -0.52994,-0.5324 -0.90616,-0.52205zM19.98828,12.98828c-0.37062,0.00148 -0.71003,0.2078 -0.88197,0.53612c-0.17194,0.32832 -0.14821,0.72481 0.06165,1.03029l1.63086,2.44531l-1.63086,2.44531c-0.20495,0.29723 -0.23379,0.68184 -0.07547,1.00631c0.15833,0.32447 0.47925,0.53841 0.83965,0.55977c0.36041,0.02135 0.70434,-0.1532 0.89988,-0.4567l2.36914,-3.55469l-2.36914,-3.55469c-0.18503,-0.28613 -0.50301,-0.45837 -0.84375,-0.45703z"></path></g></g></g></svg>