<svg xmlns="http://www.w3.org/2000/svg" xmlns:xlink="http://www.w3.org/1999/xlink" viewBox="0,0,256,256" width="128px" height="128px" fill-rule="nonzero"><g fill="#5c7cfa" fill-rule="nonzero" stroke="none" stroke-width="1" stroke-linecap="butt" stroke-linejoin="miter" stroke-miterlimit="10" stroke-dasharray="" stroke-dashoffset="0" font-family="none" font-weight="none" font-size="none" text-anchor="none" style="mix-blend-mode: normal"><g transform="scale(4,4)"><path d="M33,10v2h2v-2zM37,10v2h2v-2zM41,10v2h2v-2zM15,14c-0.553,0 -1,0.447 -1,1v3h-3c-0.553,0 -1,0.447 -1,1v3h-3c-0.553,0 -1,0.447 -1,1v3h-3c-0.553,0 -1,0.447 -1,1v34c0,0.553 0.447,1 1,1h46c0.553,0 1,-0.447 1,-1v-3h3c0.553,0 1,-0.447 1,-1v-3h3c0.553,0 1,-0.447 1,-1v-3h3c0.553,0 1,-0.447 1,-1v-34c0,-0.553 -0.447,-1 -1,-1zM16,16h44v32h-2v-29c0,-0.553 -0.447,-1 -1,-1h-41zM12,20h44v32h-2v-29c0,-0.553 -0.447,-1 -1,-1h-41zM8,24h44v32h-2v-29c0,-0.553 -0.447,-1 -1,-1h-41zM4,28h44v6h-44zM6,30v2h2v-2zM10,30v2h2v-2zM14,30v2h2v-2zM4,36h44v24h-44zM24,38c-5.514,0 -10,4.486 -10,10c0,5.514 4.486,10 10,10c5.514,0 10,-4.486 10,-10c0,-5.514 -4.486,-10 -10,-10zM24,40c4.411,0 8,3.589 8,8c0,4.411 -3.589,8 -8,8c-4.411,0 -8,-3.589 -8,-8c0,-4.411 3.589,-8 8,-8zM20.95508,43c-0.1675,0.00725 -0.33297,0.05644 -0.48047,0.14844c-0.294,0.183 -0.47461,0.50456 -0.47461,0.85156v8c0,0.347 0.17961,0.66856 0.47461,0.85156c0.16,0.099 0.34239,0.14844 0.52539,0.14844c0.153,0 0.30627,-0.03547 0.44727,-0.10547l8,-4c0.339,-0.17 0.55273,-0.51553 0.55273,-0.89453c0,-0.379 -0.21373,-0.72453 -0.55273,-0.89453l-8,-4c-0.1555,-0.077 -0.32469,-0.11272 -0.49219,-0.10547zM22,45.61719l4.76367,2.38281l-4.76367,2.38281z"></path></g></g></svg>